<svg xmlns="http://www.w3.org/2000/svg" xmlns:xlink="http://www.w3.org/1999/xlink"><defs><clipPath id="clip0"><path fill="#fff" d="M0 0h14v14H0z"/></clipPath><linearGradient id="paint0_linear" x1="13.26" y1="52.978" x2="66.473" y2="52.978" gradientUnits="userSpaceOnUse"><stop stop-color="#B0F4FF"/><stop offset="1" stop-color="#69DCFC"/></linearGradient><linearGradient id="paint1_linear" x1="0" y1="52.987" x2="13.26" y2="52.987" gradientUnits="userSpaceOnUse"><stop stop-color="#6CBCFC"/><stop offset="1" stop-color="#458DFC"/></linearGradient><linearGradient id="paint2_linear" x1="20.996" y1="17.421" x2="58.094" y2="17.421" gradientUnits="userSpaceOnUse"><stop stop-color="#6CBCFC"/><stop offset="1" stop-color="#458DFC"/></linearGradient><linearGradient id="paint3_linear" x1="66.469" y1="52.982" x2="80.001" y2="52.982" gradientUnits="userSpaceOnUse"><stop stop-color="#6CBCFC"/><stop offset="1" stop-color="#458DFC"/></linearGradient><linearGradient id="paint4_linear" x1="27.367" y1="52.991" x2="52.63" y2="52.991" gradientUnits="userSpaceOnUse"><stop stop-color="#6CBCFC"/><stop offset="1" stop-color="#458DFC"/></linearGradient><clipPath id="clip0"><path fill="#fff" d="M0 0h80v95H0z"/></clipPath><linearGradient id="paint0_linear" x1="4.077" y1="45.03" x2="67.343" y2="50.454" gradientUnits="userSpaceOnUse"><stop stop-color="#6CBCFC"/><stop offset="1" stop-color="#458DFC"/></linearGradient><linearGradient id="paint1_linear" x1="18.67" y1="19.292" x2="48.465" y2="34.668" gradientUnits="userSpaceOnUse"><stop stop-color="#B0F4FF"/><stop offset=".086" stop-color="#A3F0FE"/><stop offset=".297" stop-color="#8AE7FD"/><stop offset=".516" stop-color="#77E1FD"/><stop offset=".745" stop-color="#6DDDFC"/><stop offset="1" stop-color="#69DCFC"/></linearGradient><linearGradient id="paint2_linear" x1="54.812" y1="49.257" x2="12.481" y2="49.257" gradientUnits="userSpaceOnUse"><stop stop-color="#6CBCFC"/><stop offset="1" stop-color="#458DFC"/></linearGradient><linearGradient id="paint3_linear" x1="47.602" y1="59.588" x2="12.481" y2="59.588" gradientUnits="userSpaceOnUse"><stop stop-color="#6CBCFC"/><stop offset="1" stop-color="#458DFC"/></linearGradient><linearGradient id="paint4_linear" x1="41.233" y1="65.78" x2="12.481" y2="65.78" gradientUnits="userSpaceOnUse"><stop stop-color="#6CBCFC"/><stop offset="1" stop-color="#458DFC"/></linearGradient><linearGradient id="paint5_linear" x1="44.656" y1="71.512" x2="12.481" y2="71.512" gradientUnits="userSpaceOnUse"><stop stop-color="#6CBCFC"/><stop offset="1" stop-color="#458DFC"/></linearGradient><clipPath id="clip0"><path fill="#fff" d="M0 0h67v95H0z"/></clipPath><linearGradient id="paint0_linear" x1="95.79" y1="126" x2="-4.991" y2="-6.307" gradientUnits="userSpaceOnUse"><stop offset=".306" stop-color="#5BA7FC"/><stop offset="1" stop-color="#69B8FC"/></linearGradient><linearGradient id="paint1_linear" x1="8.696" y1="7.046" x2="57.866" y2="78.413" gradientUnits="userSpaceOnUse"><stop offset=".306" stop-color="#fff"/><stop offset="1" stop-color="#fff"/></linearGradient><linearGradient id="paint2_linear" x1="10.083" y1="9.5" x2="25.026" y2="34.11" gradientUnits="userSpaceOnUse"><stop stop-color="#B0F4FF"/><stop offset=".369" stop-color="#80E4FD"/><stop offset="1" stop-color="#6CDDFC"/></linearGradient><linearGradient id="paint3_linear" x1="10.376" y1="38.207" x2="59.627" y2="38.207" gradientUnits="userSpaceOnUse"><stop stop-color="#6CBCFC"/><stop offset="1" stop-color="#458DFC"/></linearGradient><linearGradient id="paint4_linear" x1="34.61" y1="15.585" x2="59.627" y2="15.585" gradientUnits="userSpaceOnUse"><stop stop-color="#6CBCFC"/><stop offset="1" stop-color="#458DFC"/></linearGradient><linearGradient id="paint5_linear" x1="34.61" y1="23.262" x2="52.559" y2="23.262" gradientUnits="userSpaceOnUse"><stop stop-color="#6CBCFC"/><stop offset="1" stop-color="#458DFC"/></linearGradient><linearGradient id="paint6_linear" x1="10.376" y1="46.832" x2="59.627" y2="46.832" gradientUnits="userSpaceOnUse"><stop stop-color="#6CBCFC"/><stop offset="1" stop-color="#458DFC"/></linearGradient><linearGradient id="paint7_linear" x1="10.376" y1="55.456" x2="59.627" y2="55.456" gradientUnits="userSpaceOnUse"><stop stop-color="#6CBCFC"/><stop offset="1" stop-color="#458DFC"/></linearGradient><linearGradient id="paint8_linear" x1="10.376" y1="64.081" x2="59.627" y2="64.081" gradientUnits="userSpaceOnUse"><stop stop-color="#6CBCFC"/><stop offset="1" stop-color="#458DFC"/></linearGradient><linearGradient id="paint9_linear" x1="10.376" y1="72.705" x2="59.627" y2="72.705" gradientUnits="userSpaceOnUse"><stop stop-color="#6CBCFC"/><stop offset="1" stop-color="#458DFC"/></linearGradient><linearGradient id="paint10_linear" x1="10.376" y1="81.33" x2="59.627" y2="81.33" gradientUnits="userSpaceOnUse"><stop stop-color="#6CBCFC"/><stop offset="1" stop-color="#458DFC"/></linearGradient><clipPath id="clip0"><path fill="#fff" d="M0 0h70v95H0z"/></clipPath><linearGradient id="paint0_linear" x1="0" y1="16.333" x2="57.139" y2="95.194" gradientUnits="userSpaceOnUse"><stop stop-color="#6CBCFC"/><stop offset="1" stop-color="#458DFC"/></linearGradient><linearGradient id="paint1_linear" x1="-629.93" y1="-34.931" x2="-27.604" y2="7.022" gradientUnits="userSpaceOnUse"><stop stop-color="#B0F4FF"/><stop offset=".053" stop-color="#A9F2FF"/><stop offset=".288" stop-color="#8DE8FE"/><stop offset=".525" stop-color="#79E1FD"/><stop offset=".762" stop-color="#6DDDFC"/><stop offset="1" stop-color="#69DCFC"/></linearGradient><linearGradient id="paint2_linear" x1="6.14" y1="11.113" x2="56.126" y2="11.113" gradientUnits="userSpaceOnUse"><stop stop-color="#B0F4FF"/><stop offset=".053" stop-color="#A9F2FF"/><stop offset=".288" stop-color="#8DE8FE"/><stop offset=".525" stop-color="#79E1FD"/><stop offset=".762" stop-color="#6DDDFC"/><stop offset="1" stop-color="#69DCFC"/></linearGradient><linearGradient id="paint3_linear" x1="21.978" y1="48.095" x2="12.598" y2="58.912" gradientUnits="userSpaceOnUse"><stop stop-color="#6CBCFC"/><stop offset="1" stop-color="#458DFC"/></linearGradient><linearGradient id="paint4_linear" x1="52.385" y1="50.671" x2="28.887" y2="50.671" gradientUnits="userSpaceOnUse"><stop stop-color="#6CBCFC"/><stop offset="1" stop-color="#458DFC"/></linearGradient><linearGradient id="paint5_linear" x1="30.552" y1="56.532" x2="52.179" y2="56.532" gradientUnits="userSpaceOnUse"><stop stop-color="#6CBCFC"/><stop offset="1" stop-color="#458DFC"/></linearGradient><linearGradient id="paint0_linear" x1="5.675" y1="86.326" x2="53.924" y2="42.792" gradientUnits="userSpaceOnUse"><stop stop-color="#67C3F3"/><stop offset="1" stop-color="#5A98F2"/></linearGradient><linearGradient id="paint1_linear" x1="50.017" y1="4.113" x2="72.782" y2="54.905" gradientUnits="userSpaceOnUse"><stop stop-color="#67C3F3"/><stop offset="1" stop-color="#5A98F2"/></linearGradient><linearGradient id="paint2_linear" x1="54.692" y1="30.227" x2="72.343" y2="38.772" gradientUnits="userSpaceOnUse"><stop stop-color="#B0F4FF"/><stop offset=".071" stop-color="#A6F1FF"/><stop offset=".294" stop-color="#8BE8FD"/><stop offset=".521" stop-color="#78E1FD"/><stop offset=".754" stop-color="#6DDDFC"/><stop offset="1" stop-color="#69DCFC"/></linearGradient><linearGradient id="paint0_linear" x1="-9.278" y1="34.748" x2="76.297" y2="62.522" gradientUnits="userSpaceOnUse"><stop stop-color="#6CBCFC"/><stop offset=".171" stop-color="#5EABFC"/><stop offset=".408" stop-color="#509AFC"/><stop offset=".67" stop-color="#4890FC"/><stop offset="1" stop-color="#458DFC"/></linearGradient><linearGradient id="paint1_linear" x1="-5.219" y1="-21.375" x2="55.715" y2="7.936" gradientUnits="userSpaceOnUse"><stop stop-color="#CFE9FF"/><stop offset="1" stop-color="#A1D6FB"/></linearGradient><linearGradient id="paint2_linear" x1="14.003" y1="2.58" x2="52.895" y2="2.58" gradientUnits="userSpaceOnUse"><stop stop-color="#B0F4FF"/><stop offset="1" stop-color="#69DCFC"/></linearGradient><linearGradient id="paint3_linear" x1="14.119" y1="29.207" x2="23.902" y2="41.823" gradientUnits="userSpaceOnUse"><stop stop-color="#6CBCFC"/><stop offset="1" stop-color="#458DFC"/></linearGradient><linearGradient id="paint4_linear" x1="13.059" y1="30.029" x2="22.843" y2="42.645" gradientUnits="userSpaceOnUse"><stop stop-color="#B0F4FF"/><stop offset=".099" stop-color="#A1EFFE"/><stop offset=".299" stop-color="#88E7FD"/><stop offset=".509" stop-color="#77E1FD"/><stop offset=".734" stop-color="#6CDDFC"/><stop offset="1" stop-color="#69DCFC"/></linearGradient><linearGradient id="paint5_linear" x1="28.913" y1="26.551" x2="50.548" y2="26.564" gradientUnits="userSpaceOnUse"><stop stop-color="#6CBCFC"/><stop offset="1" stop-color="#458DFC"/></linearGradient><linearGradient id="paint6_linear" x1="28.917" y1="30.404" x2="43.098" y2="30.404" gradientUnits="userSpaceOnUse"><stop stop-color="#6CBCFC"/><stop offset="1" stop-color="#458DFC"/></linearGradient><linearGradient id="paint7_linear" x1="28.922" y1="35.01" x2="57.538" y2="35.01" gradientUnits="userSpaceOnUse"><stop stop-color="#6CBCFC"/><stop offset="1" stop-color="#458DFC"/></linearGradient><linearGradient id="paint8_linear" x1="10.104" y1="47.927" x2="56.977" y2="47.927" gradientUnits="userSpaceOnUse"><stop stop-color="#6CBCFC"/><stop offset="1" stop-color="#458DFC"/></linearGradient><linearGradient id="paint9_linear" x1="28.926" y1="39.519" x2="57.542" y2="39.519" gradientUnits="userSpaceOnUse"><stop stop-color="#6CBCFC"/><stop offset="1" stop-color="#458DFC"/></linearGradient><clipPath id="clip0"><path fill="#fff" d="M0 0h67v95H0z"/></clipPath></defs><symbol id="icon__arrow-down" viewBox="0 0 14 14"><g clip-path="url(#clip0)"><path d="M6.196.795v10.5L3.866 8.99a.782.782 0 00-1.125 0 .764.764 0 000 1.113l3.696 3.66a.782.782 0 001.125 0l3.697-3.66a.764.764 0 000-1.113.782.782 0 00-1.125 0l-2.33 2.306V.796A.801.801 0 007 0a.801.801 0 00-.804.795z" fill="#458FF6"/></g></symbol><symbol id="icon__arrow-right" viewBox="0 0 14 14"><path d="M.795 7.804h10.5l-2.306 2.33a.782.782 0 000 1.125.764.764 0 001.113 0l3.66-3.697a.782.782 0 000-1.125l-3.66-3.696a.764.764 0 00-1.113 0 .782.782 0 000 1.125l2.306 2.33H.796A.801.801 0 000 7c0 .482.398.804.795.804z"/></symbol><symbol id="icon__care" viewBox="0 0 80 95"><g clip-path="url(#clip0)"><path d="M66.475 24.423H13.258V81.54h53.218V24.423z" fill="url(#paint0_linear)"/><path d="M13.038 24.423c.064 0 .129.028.22.055v57.034c-4.12.322-7.597-.715-10.359-3.376C.945 76.246 0 74.026 0 71.51v-26.69c0-3.396-.01-6.79-.01-10.185 0-4.102 2.212-7.084 6.277-9.103 2.092-1.027 4.413-1.183 6.771-1.11z" fill="url(#paint1_linear)"/><path d="M57.18 24.414h4.983v57.108H17.571v-57.09h5.294v-.596c0-2.046.01-4.101-.01-6.147-.018-1.432.368-2.68 1.487-3.652.79-.68 1.698-1.028 2.725-1.028C30.251 13 33.426 13 36.61 13c5.349 0 10.707.01 16.057 0 1.403 0 2.569.459 3.486 1.523.734.853 1.01 1.854 1.01 2.973-.01 2.156 0 4.312 0 6.469-.01.119 0 .256.018.45zm-28.571 0h8.157c4.734 0 9.478 0 14.212.01.377 0 .46-.12.46-.478-.02-1.606 0-3.211 0-4.817 0-.128-.02-.257-.038-.394H28.61v5.68z" fill="#fff"/><mask id="a" maskUnits="userSpaceOnUse" x="17" y="13" width="46" height="69"><path d="M57.18 24.414h4.983v57.108H17.571v-57.09h5.294v-.596c0-2.046.01-4.101-.01-6.147-.018-1.432.368-2.68 1.487-3.652.79-.68 1.698-1.028 2.725-1.028C30.251 13 33.426 13 36.61 13c5.349 0 10.707.01 16.057 0 1.403 0 2.569.459 3.486 1.523.734.853 1.01 1.854 1.01 2.973-.01 2.156 0 4.312 0 6.469-.01.119 0 .256.018.45zm-28.571 0h8.157c4.734 0 9.478 0 14.212.01.377 0 .46-.12.46-.478-.02-1.606 0-3.211 0-4.817 0-.128-.02-.257-.038-.394H28.61v5.68z" fill="#F7F9FC"/></mask><g mask="url(#a)"><path d="M58.096 10.412H21v14.02h37.096v-14.02z" fill="url(#paint2_linear)"/></g><path d="M80 34.489c0-3.78-2.064-6.597-5.735-8.643-2.257-1.258-4.817-1.496-7.44-1.441-.405.01-.35.22-.35.44v19.81c0 11.607 0 23.204-.009 34.811v2.065c1.652.055 3.22.064 4.762-.303 5.212-1.23 8.763-5.11 8.763-9.69.018-12.34.009-24.7.009-37.05z" fill="url(#paint3_linear)"/><path d="M44.216 57.198v7.248c0 .762-.385 1.166-1.138 1.166-2.073.009-4.147.009-6.22 0-.689 0-1.074-.432-1.074-1.157V57.63v-.431h-7.166c-.89 0-1.257-.358-1.257-1.248v-5.918c0-.9.358-1.257 1.248-1.257h7.166v-.386-6.826c0-.844.376-1.211 1.22-1.211h5.918c.927 0 1.285.348 1.285 1.294.009 2.257 0 4.505 0 6.762v.376h.394c2.276 0 4.551 0 6.827.01.835 0 1.193.366 1.193 1.201v5.946c0 .908-.35 1.257-1.24 1.257-2.265 0-4.532 0-6.789.009-.092-.01-.202-.01-.367-.01z" fill="url(#paint4_linear)"/></g></symbol><symbol id="icon__close-menu" viewBox="0 0 32 32"><path d="M14.586 16l-7.293 7.293 1.414 1.414L16 17.414l7.293 7.293 1.414-1.414L17.414 16l7.293-7.293-1.414-1.414L16 14.586 8.707 7.293 7.293 8.707 14.586 16z"/></symbol><symbol id="icon__consultation" viewBox="0 0 67 95"><g clip-path="url(#clip0)"><path d="M64.968 0H2.33C1.04 0 0 1.028 0 2.3v90.407c0 1.272 1.041 2.3 2.33 2.3h62.638c1.288 0 2.33-1.028 2.33-2.3V2.3a2.323 2.323 0 00-2.33-2.3z" fill="url(#paint0_linear)"/><path d="M60.856 4.098H6.434c-1.25 0-2.268 1.005-2.268 2.247v74.747c0 1.242 1.018 2.24 2.268 2.24h54.422c1.258 0 2.268-1.006 2.268-2.24V6.345a2.254 2.254 0 00-2.268-2.247z" fill="#fff"/><path d="M44.773 39.636H22.525a1.832 1.832 0 01-1.843-1.82V15.842c0-1.005.825-1.82 1.843-1.82h22.248c1.018 0 1.843.815 1.843 1.82v21.966a1.838 1.838 0 01-1.843 1.828z" fill="url(#paint1_linear)"/><path d="M33.649 92.547c1.891 0 3.425-1.513 3.425-3.381 0-1.868-1.534-3.382-3.425-3.382-1.892 0-3.425 1.514-3.425 3.382s1.533 3.382 3.425 3.382z" fill="#fff"/><path d="M53.034 51.015H14.256c-.98 0-1.782-.792-1.782-1.76 0-.967.802-1.759 1.782-1.759h38.77c.98 0 1.783.792 1.783 1.76a1.77 1.77 0 01-1.775 1.759z" fill="url(#paint2_linear)"/><path opacity=".6" d="M46.47 60.764H13.608a1.12 1.12 0 01-1.127-1.112v-.122c0-.617.51-1.112 1.127-1.112H46.47a1.12 1.12 0 011.126 1.112v.122c.008.61-.501 1.112-1.126 1.112z" fill="url(#paint3_linear)"/><path opacity=".3" d="M40.214 66.956H13.5a1.024 1.024 0 01-1.026-1.013v-.335c0-.556.463-1.013 1.026-1.013h26.706c.563 0 1.026.457 1.026 1.013v.335c0 .556-.463 1.013-1.018 1.013z" fill="url(#paint4_linear)"/><path opacity=".6" d="M43.577 72.691H13.56c-.594 0-1.08-.48-1.08-1.066v-.213c0-.587.486-1.066 1.08-1.066h30.016c.594 0 1.08.48 1.08 1.066v.213c0 .579-.486 1.066-1.08 1.066z" fill="url(#paint5_linear)"/><path d="M33.716 26.12a4.034 4.034 0 004.033-4.035 4.034 4.034 0 10-8.066 0 4.029 4.029 0 004.033 4.036zm0 2.018c-2.692 0-8.067 1.351-8.067 4.036v1.013c0 .557.456 1.013 1.013 1.013h14.124c.557 0 1.013-.456 1.013-1.013v-1.013c-.017-2.676-5.392-4.035-8.083-4.035z" fill="#fff"/></g></symbol><symbol id="icon__info" viewBox="0 0 70 95"><g clip-path="url(#clip0)"><path d="M70 4.31v86.396c0 2.384-1.942 4.31-4.346 4.31H4.346C1.942 95 0 93.074 0 90.706V4.31C0 1.926 1.942 0 4.346 0H65.67C68.058 0 70 1.926 70 4.31z" fill="url(#paint0_linear)"/><path d="M65.54 7.947v79.106c0 2.183-1.706 3.947-3.818 3.947H7.852c-2.112-.014-3.819-1.778-3.819-3.947V7.947C4.033 5.764 5.74 4 7.853 4h53.883c2.098 0 3.805 1.764 3.805 3.947z" fill="url(#paint1_linear)"/><path d="M27.096 18.252v3.931a.5.5 0 01-.51.505h-4.855a.5.5 0 00-.51.506v4.815a.5.5 0 01-.51.505h-3.963a.5.5 0 01-.51-.505v-4.816a.5.5 0 00-.51-.505H10.89a.5.5 0 01-.51-.505v-3.931a.5.5 0 01.51-.506h4.856a.5.5 0 00.51-.505v-4.815a.5.5 0 01.509-.506h3.964a.5.5 0 01.509.506v4.815a.5.5 0 00.51.505h4.84a.5.5 0 01.509.506z" fill="url(#paint2_linear)"/><path opacity=".5" d="M59.063 39.677H10.937a.568.568 0 01-.573-.569v-1.815c0-.316.255-.569.573-.569h48.126c.318 0 .573.253.573.569v1.815c-.016.316-.255.569-.573.569z" fill="url(#paint3_linear)"/><path d="M59.063 17.052h-23.88a.568.568 0 01-.573-.569v-1.8c0-.315.255-.568.573-.568h23.88c.318 0 .573.253.573.568V16.5a.576.576 0 01-.573.553z" fill="url(#paint4_linear)"/><path opacity=".5" d="M51.995 24.725H35.183a.568.568 0 01-.573-.568V22.34c0-.316.255-.569.573-.569h16.812c.318 0 .573.253.573.569v1.816c-.016.315-.255.568-.573.568z" fill="url(#paint5_linear)"/><path opacity=".5" d="M59.063 48.297H10.937a.568.568 0 01-.573-.568v-1.816c0-.316.255-.568.573-.568h48.126c.318 0 .573.252.573.568v1.816c-.016.316-.255.568-.573.568z" fill="url(#paint6_linear)"/><path opacity=".5" d="M59.063 56.918H10.937a.568.568 0 01-.573-.569v-1.815c0-.316.255-.569.573-.569h48.126c.318 0 .573.253.573.569v1.831a.576.576 0 01-.573.553z" fill="url(#paint7_linear)"/><path opacity=".5" d="M59.063 65.554H10.937a.568.568 0 01-.573-.568V63.17c0-.316.255-.568.573-.568h48.126c.318 0 .573.252.573.568v1.816c-.016.316-.255.568-.573.568z" fill="url(#paint8_linear)"/><path opacity=".5" d="M59.063 74.175H10.937a.568.568 0 01-.573-.569v-1.815c0-.316.255-.569.573-.569h48.126c.318 0 .573.253.573.569v1.816c-.016.315-.255.568-.573.568z" fill="url(#paint9_linear)"/><path opacity=".5" d="M59.063 82.795H10.937a.568.568 0 01-.573-.568v-1.816c0-.315.255-.568.573-.568h48.126c.318 0 .573.253.573.568v1.816c-.016.316-.255.568-.573.568z" fill="url(#paint10_linear)"/><path opacity=".1" d="M70 4.31v86.396c0 2.384-1.942 4.31-4.346 4.31H4.346C1.942 95 0 93.074 0 90.706v-1.5C37.396 73.89 54.812 15.157 58.745 0h6.909C68.058 0 70 1.926 70 4.31z" fill="#1A6FB5" fill-opacity=".4"/></g></symbol><symbol id="icon__logo_mini" viewBox="0 0 41 41"><path d="M41 20.5C41 31.8 31.8 41 20.5 41S0 31.8 0 20.5 9.2 0 20.5 0 41 9.2 41 20.5zm-21.7-5.3h-6v-2.8h15.5v2.8h-6.1V31h-3.4V15.2z" fill-rule="evenodd" clip-rule="evenodd"/></symbol><symbol id="icon__logo_primary" viewBox="0 0 160 41"><path fill-rule="evenodd" clip-rule="evenodd" d="M41 20.5C41 31.822 31.822 41 20.5 41S0 31.822 0 20.5 9.178 0 20.5 0 41 9.178 41 20.5zm-21.656-5.256h-6.032v-2.756h15.47v2.756h-6.058V31h-3.38V15.244z" fill="#fff"/><path d="M53.288 15.456h5.568V30h3.12V15.456h5.592v-2.544h-14.28v2.544zM75.32 17.784c-.335-.128-.735-.192-1.2-.192-.831 0-1.575.208-2.231.624-.656.416-1.136 1.016-1.44 1.8l-.24-2.136H67.4c.128 1.008.192 2.152.192 3.432V30h2.976v-6.552c0-.976.264-1.76.792-2.352.544-.592 1.328-.888 2.352-.888.544 0 1.072.104 1.584.312l.024-2.736z" fill="#fff"/><path fill-rule="evenodd" clip-rule="evenodd" d="M88.349 30V17.88h-2.952v1.824a3.817 3.817 0 00-1.584-1.56c-.688-.384-1.472-.576-2.352-.576-1.04 0-1.968.272-2.784.816-.816.528-1.456 1.28-1.92 2.256-.448.96-.672 2.064-.672 3.312 0 1.248.224 2.344.672 3.288.448.944 1.08 1.672 1.896 2.184.816.512 1.752.768 2.808.768.88 0 1.664-.184 2.352-.552a3.971 3.971 0 001.584-1.584V30h2.952zm-3.768-3.192c-.544.688-1.312 1.032-2.304 1.032-1.008 0-1.792-.336-2.352-1.008-.544-.672-.816-1.632-.816-2.88 0-1.264.272-2.248.816-2.952.56-.72 1.336-1.08 2.328-1.08 1.008 0 1.784.344 2.328 1.032.544.688.816 1.672.816 2.952 0 1.248-.272 2.216-.816 2.904z" fill="#fff"/><path d="M95.408 16.848c0-1.424.648-2.136 1.944-2.136.336 0 .728.056 1.176.168v-2.376c-.512-.192-1.144-.288-1.896-.288-1.36 0-2.408.392-3.144 1.176-.72.768-1.08 1.872-1.08 3.312v1.176h-2.304v2.256h2.304V30h3v-9.864h2.712V17.88h-2.712v-1.032z" fill="#fff"/><path fill-rule="evenodd" clip-rule="evenodd" d="M111.904 30V17.88h-2.952v1.824a3.817 3.817 0 00-1.584-1.56c-.688-.384-1.472-.576-2.352-.576-1.04 0-1.968.272-2.784.816-.816.528-1.456 1.28-1.92 2.256-.448.96-.672 2.064-.672 3.312 0 1.248.224 2.344.672 3.288.448.944 1.08 1.672 1.896 2.184.816.512 1.752.768 2.808.768.88 0 1.664-.184 2.352-.552a3.971 3.971 0 001.584-1.584V30h2.952zm-3.768-3.192c-.544.688-1.312 1.032-2.304 1.032-1.008 0-1.792-.336-2.352-1.008-.544-.672-.816-1.632-.816-2.88 0-1.264.272-2.248.816-2.952.56-.72 1.336-1.08 2.328-1.08 1.008 0 1.784.344 2.328 1.032.544.688.816 1.672.816 2.952 0 1.248-.272 2.216-.816 2.904z" fill="#fff"/><path d="M118.147 12.336h-2.976V30h2.976V12.336z" fill="#fff"/><path fill-rule="evenodd" clip-rule="evenodd" d="M133.141 29.616V17.88h-2.976v1.824a3.785 3.785 0 00-1.608-1.56c-.688-.384-1.48-.576-2.376-.576-1.056 0-2 .256-2.832.768-.816.496-1.456 1.208-1.92 2.136-.448.912-.672 1.96-.672 3.144 0 1.184.224 2.24.672 3.168.464.912 1.104 1.624 1.92 2.136.832.496 1.776.744 2.832.744.88 0 1.672-.2 2.376-.6.704-.416 1.24-.952 1.608-1.608v2.4c0 2.144-1.08 3.216-3.24 3.216-1.456 0-2.92-.384-4.392-1.152l-.48 2.28c1.424.784 3.072 1.176 4.944 1.176 2.016 0 3.544-.488 4.584-1.464 1.04-.976 1.56-2.408 1.56-4.296zm-3.84-3.288c-.56.656-1.336.984-2.328.984-.992 0-1.776-.328-2.352-.984-.56-.656-.84-1.56-.84-2.712 0-1.152.28-2.056.84-2.712.576-.656 1.36-.984 2.352-.984 1.008 0 1.792.328 2.352.984.56.656.84 1.56.84 2.712 0 1.152-.288 2.056-.864 2.712zM147.974 30V17.88h-2.952v1.824a3.817 3.817 0 00-1.584-1.56c-.688-.384-1.472-.576-2.352-.576-1.04 0-1.968.272-2.784.816-.816.528-1.456 1.28-1.92 2.256-.448.96-.672 2.064-.672 3.312 0 1.248.224 2.344.672 3.288.448.944 1.08 1.672 1.896 2.184.816.512 1.752.768 2.808.768.88 0 1.664-.184 2.352-.552a3.971 3.971 0 001.584-1.584V30h2.952zm-3.768-3.192c-.544.688-1.312 1.032-2.304 1.032-1.008 0-1.792-.336-2.352-1.008-.544-.672-.816-1.632-.816-2.88 0-1.264.272-2.248.816-2.952.56-.72 1.336-1.08 2.328-1.08 1.008 0 1.784.344 2.328 1.032.544.688.816 1.672.816 2.952 0 1.248-.272 2.216-.816 2.904z" fill="#fff"/><path d="M158.969 17.784c-.336-.128-.736-.192-1.2-.192-.832 0-1.576.208-2.232.624-.656.416-1.136 1.016-1.44 1.8l-.24-2.136h-2.808c.128 1.008.192 2.152.192 3.432V30h2.976v-6.552c0-.976.264-1.76.792-2.352.544-.592 1.328-.888 2.352-.888.544 0 1.072.104 1.584.312l.024-2.736z" fill="#fff"/></symbol><symbol id="icon__logo_white" viewBox="0 0 41 41"><circle cx="20.5" cy="20.5" r="20.5" fill="#fff"/><path d="M19.344 15.244h-6.032v-2.756h15.47v2.756h-6.058V31h-3.38V15.244z" fill="#458FF6"/></symbol><symbol id="icon__menu" viewBox="0 0 32 32"><path d="M25 11.75H7V10h18v1.75zM25 16.875H7v-1.75h18v1.75zM7 22h18v-1.75H7V22z"/></symbol><symbol id="icon__pharmacy" viewBox="0 0 62 95"><path d="M61.858 31.48l-.192 39.801-.032 7.699c-.032 6.117-5.846 11.052-13 11.02l-35.745-.16C5.75 89.792-.03 84.81 0 78.676l.224-47.499c.016-4.951 3.849-9.136 9.087-10.525l.016-2.555v-1.31l43.555.208-.016 3.865c5.222 1.453 9.008 5.654 8.992 10.62z" fill="url(#paint0_linear)"/><path d="M56.124 6.773v.351l-.032 4.153-.032 4.073v.495c0 .766-.639 1.39-1.406 1.39h-.335l-2.108-.017-2.316-.016-2.108-.016-2.316-.016-2.14-.032-2.316-.016-2.108-.016-2.332-.016-2.125-.016-2.315-.016-2.108-.032-2.316-.015-2.109-.017-2.332-.015-2.124-.016-2.3-.016-2.108-.016-2.316-.016-2.124-.016-2.316-.016-2.124-.016h-.335c-.767 0-1.39-.64-1.39-1.406v-.367l.064-8.21V6.39c0-.767.639-1.39 1.422-1.39h.335l4.44.032 4.44.032 2.124.016 2.316.016 2.108.016 4.424.048 2.316.016 2.108.016 2.316.016 2.109.016 2.316.016 2.108.016 2.316.016 2.108.015 2.348.032 2.108.016 2.316.016 2.124.016h.335c.783.016 1.39.64 1.39 1.406z" fill="url(#paint1_linear)"/><path d="M56.124 7.14l-.032 4.137-.032 4.073-1.9-.016-2.524-.016-2.316-.016h-2.54l-2.315-.016-2.524-.016-2.316-.016h-2.54l-2.315-.016-2.54-.016-2.3-.016h-2.539l-2.316-.016-2.54-.016-2.315-.016h-2.523l-2.316-.016-2.54-.016-2.316-.016H8.002l-1.869-.016.064-8.21 4.44.017 4.84.032 2.315.016 2.54.016h2.316l4.839.031 2.54.016h2.315l2.54.016 2.3.016 2.54.016h2.315l2.54.016 2.3.016 2.539.016h2.316l2.54.016 1.852.016z" fill="url(#paint2_linear)"/><path d="M61.81 39.884L.178 39.593.047 66.92l61.634.291.13-27.327z" fill="#F7F9FC"/><path d="M61.822 39.884L.188 39.593l-.024 4.919 61.634.291.023-4.919z" fill="#FBFCF7"/><path d="M24.213 50.58l-3.977-.016.016-3.992-5.478-.017-.016 3.977-3.977-.015-.032 5.462 3.977.016-.016 3.992 5.478.017.016-3.977 3.977.016.032-5.463z" fill="url(#paint3_linear)"/><path d="M51.236 51.906l-19.708-.096a.961.961 0 01-.958-.958v-.447c0-.527.43-.959.958-.959l19.709.096c.527 0 .958.431.958.959v.447a.961.961 0 01-.959.958z" fill="url(#paint4_linear)"/><path opacity=".5" d="M51.22 57.767l-19.708-.095a.961.961 0 01-.959-.959v-.447c0-.527.432-.958.959-.958l19.709.096c.527 0 .958.431.958.958v.447a.961.961 0 01-.959.959z" fill="url(#paint5_linear)"/><path opacity=".08" d="M6.133 6.773v.351l.032 4.153.032 4.057v.495c0 .766.639 1.39 1.406 1.39h.335l2.124-.017 2.316-.016 2.108-.016 2.316-.016 2.108-.016 2.316-.016 2.108-.016 2.316-.016 2.125-.016 2.315-.016 2.109-.015 2.315-.017 2.109-.015 2.316-.016 2.124-.016 2.316-.016 2.108-.016 2.316-.016 2.108-.016 2.316-.016 2.124-.016h.335c.767 0 1.39-.64 1.39-1.406v-.367C31.368 16.18 7.523 5.367 7.523 5.367a1.415 1.415 0 00-1.39 1.406z" fill="#1A6FB5"/></symbol><symbol id="icon__search" viewBox="0 0 92 95"><path d="M56.215 45.315l-9.077 8.665L8.803 90.566a5.176 5.176 0 01-3.588 1.444 5.176 5.176 0 01-3.853-1.71c-2.023-2.233-1.759-5.726.57-7.63l45.206-36.843 4.98-4.056 4.097 3.544z" fill="url(#paint0_linear)"/><path d="M46.741 54.42l-8.935 8.522-.824-8.757 4.89-3.984 4.87 4.22z" fill="#3A81D6" fill-opacity=".8"/><path d="M91.978 31.908c0 16.52-13.297 29.918-29.683 29.918-10.329 0-19.427-5.316-24.744-13.387a29.93 29.93 0 01-4.94-16.531C32.611 15.387 45.908 2 62.295 2c7.4 0 14.16 2.724 19.355 7.231a29.95 29.95 0 0110.328 22.677z" fill="url(#paint1_linear)"/><path d="M62.295 55.21c12.772 0 23.126-10.433 23.126-23.302 0-12.87-10.354-23.302-23.126-23.302-12.773 0-23.127 10.433-23.127 23.302s10.354 23.301 23.127 23.301z" fill="#fff"/><path opacity=".06" d="M91.978 31.908c0 16.52-13.296 29.918-29.683 29.918-10.329 0-19.427-5.316-24.743-13.387C71.027 45.694 79.85 17.118 81.66 9.231a29.976 29.976 0 0110.318 22.677z" fill="#1A6FB5" fill-opacity=".5"/><path d="M61.718 31.792c2.684 0 4.86-2.192 4.86-4.896 0-2.704-2.176-4.896-4.86-4.896-2.683 0-4.859 2.192-4.859 4.896 0 2.704 2.165 4.896 4.86 4.896zm0 2.448c-3.243 0-9.718 1.639-9.718 4.895v1.23c0 .676.549 1.229 1.22 1.229h17.017c.67 0 1.22-.553 1.22-1.23v-1.228c-.02-3.247-6.496-4.896-9.739-4.896z" fill="url(#paint2_linear)"/></symbol><symbol id="icon__tracking" viewBox="0 0 67 95"><g clip-path="url(#clip0)"><path d="M67 90.448a4.488 4.488 0 01-4.48 4.494l-57.94.066A4.49 4.49 0 01.09 90.531L0 6.881a4.488 4.488 0 014.48-4.493l53.203-.058 4.737-.008a4.488 4.488 0 014.489 4.485L67 90.448z" fill="url(#paint0_linear)"/><path d="M60.996 89.967l-54.9.058a2.408 2.408 0 01-2.41-2.412L3.602 9.767a2.408 2.408 0 012.41-2.413l54.892-.058a2.408 2.408 0 012.41 2.413l.082 77.846a2.401 2.401 0 01-2.401 2.412z" fill="#fff"/><path d="M53.285 13.714l-40.042.05a2.412 2.412 0 01-2.41-2.405l-.009-6.683a2.412 2.412 0 012.402-2.413l40.051-.041a2.412 2.412 0 012.41 2.404l.008 6.683a2.417 2.417 0 01-2.41 2.405zM13.226 3.49c-.646 0-1.176.53-1.176 1.177l.008 6.683c0 .646.53 1.177 1.176 1.177l40.051-.042c.646 0 1.176-.53 1.176-1.177l-.008-6.683c0-.646-.53-1.177-1.176-1.177l-40.05.042z" fill="url(#paint1_linear)"/><path d="M52.15 5.116l-37.392.041a.743.743 0 01-.745-.746V.788c0-.415.331-.747.745-.747L52.142 0c.414 0 .746.332.746.746V4.37a.73.73 0 01-.737.747z" fill="url(#paint2_linear)"/><path d="M14.791 5.157l37.326-.041c.431 0 .779-.349.779-.78V2.562l-38.892.041v1.775c0 .43.357.78.787.78zM27.91 81.212l-3.23-19.567-2.617 8.515-7.487.008a.817.817 0 01-.82-.82c0-.457.364-.822.82-.822l6.286-.008 4.315-14.02 3.23 19.617 4.19-13.473 2.228 6.384 5.019-12.18 4.878 19.318 1.838-6.143 5.384-.009c.455 0 .82.365.82.821 0 .456-.365.821-.82.821l-4.166.008-3.189 10.654-5.118-20.263-4.778 11.582-2.013-5.762-4.77 15.339z" fill="#58D6F4"/><path d="M22.36 43.487l-10.525.008a3.095 3.095 0 01-3.09-3.084L8.73 25.678c0-1.7 1.383-3.093 3.08-3.093l10.527-.008a3.094 3.094 0 013.09 3.084l.016 14.733a3.1 3.1 0 01-3.081 3.093zM11.803 23.48c-1.21 0-2.187.987-2.187 2.198l.017 14.733c0 1.21.985 2.189 2.194 2.189l10.527-.008c1.209 0 2.186-.987 2.186-2.197l-.017-14.734c0-1.21-.985-2.189-2.194-2.189l-10.526.008z" fill="url(#paint3_linear)"/><path d="M17.085 40.66c4.978-.008 6.526-2.885 6.526-2.885a3.615 3.615 0 00-.886-.78c-1.308-.854-2.36-1.219-2.799-1.584a2.818 2.818 0 01-.695-.878l-.274.166s-.166-.573-.074-1.443c0 0 .389-.1.679-1.418.463.091 1.01-1.086.753-1.517-.165-.282-.364-.257-.505-.19.141-.59.779-3.848-2.733-3.848-3.511 0-2.874 3.258-2.725 3.847-.14-.066-.34-.091-.505.19-.256.432.298 1.61.762 1.518.29 1.318.688 1.41.688 1.41.099.862-.075 1.442-.075 1.442l-.273-.166s-.249.514-.696.88c-.447.364-1.49.737-2.8 1.591-.38.249-.67.498-.885.78-.009.016 1.548 2.893 6.518 2.885z" fill="url(#paint4_linear)"/><path d="M49.865 27.278l-20.266.025a.686.686 0 01-.687-.688v-.116c0-.382.306-.689.687-.689l20.266-.024c.38 0 .687.306.687.688v.116a.691.691 0 01-.687.688z" fill="url(#paint5_linear)"/><path d="M42.411 31.142l-12.812.016a.686.686 0 01-.687-.688v-.116c0-.381.306-.688.687-.688l12.812-.017c.381 0 .688.307.688.688v.116a.686.686 0 01-.688.689z" fill="url(#paint6_linear)"/><path opacity=".6" d="M56.855 35.735l-27.247.033a.686.686 0 01-.688-.688v-.116c0-.382.307-.688.688-.688l27.247-.034c.38 0 .687.307.687.689v.116a.697.697 0 01-.687.688z" fill="url(#paint7_linear)"/><path opacity=".6" d="M56.267 48.644l-45.45.05a.713.713 0 01-.713-.713v-.066c0-.39.315-.713.712-.713l45.45-.05c.39 0 .713.315.713.713v.066a.713.713 0 01-.712.713z" fill="url(#paint8_linear)"/><path opacity=".6" d="M56.855 40.245l-27.247.033a.686.686 0 01-.688-.688v-.116c0-.381.307-.688.688-.688l27.247-.033c.38 0 .687.307.687.688v.116a.686.686 0 01-.687.688z" fill="url(#paint9_linear)"/></g></symbol></svg>